<mxfile host="app.diagrams.net" modified="2024-01-03T19:07:30.990Z" agent="Mozilla/5.0 (Windows NT 10.0; Win64; x64; rv:121.0) Gecko/20100101 Firefox/121.0" etag="_1Yk098_1YM1m_w88Vct" version="21.6.9">
  <diagram name="Страница — 1" id="_Rj339BD5ULCE9aioDMp">
    <mxGraphModel dx="1728" dy="922" grid="1" gridSize="10" guides="1" tooltips="1" connect="1" arrows="1" fold="1" page="1" pageScale="1" pageWidth="827" pageHeight="1169" math="0" shadow="0">
      <root>
        <mxCell id="0" />
        <mxCell id="1" parent="0" />
        <mxCell id="XH-Gdm1VruTbrLgLguAa-3" style="edgeStyle=orthogonalEdgeStyle;rounded=0;orthogonalLoop=1;jettySize=auto;html=1;entryX=0.5;entryY=0;entryDx=0;entryDy=0;" edge="1" parent="1" source="XH-Gdm1VruTbrLgLguAa-1" target="XH-Gdm1VruTbrLgLguAa-2">
          <mxGeometry relative="1" as="geometry" />
        </mxCell>
        <mxCell id="XH-Gdm1VruTbrLgLguAa-1" value="&lt;div&gt;Начало&lt;/div&gt;" style="ellipse;whiteSpace=wrap;html=1;" vertex="1" parent="1">
          <mxGeometry x="70" y="30" width="120" height="80" as="geometry" />
        </mxCell>
        <mxCell id="XH-Gdm1VruTbrLgLguAa-6" style="edgeStyle=orthogonalEdgeStyle;rounded=0;orthogonalLoop=1;jettySize=auto;html=1;entryX=0.5;entryY=0;entryDx=0;entryDy=0;" edge="1" parent="1" source="XH-Gdm1VruTbrLgLguAa-2" target="XH-Gdm1VruTbrLgLguAa-10">
          <mxGeometry relative="1" as="geometry" />
        </mxCell>
        <mxCell id="XH-Gdm1VruTbrLgLguAa-2" value="Введите x" style="shape=parallelogram;perimeter=parallelogramPerimeter;whiteSpace=wrap;html=1;fixedSize=1;" vertex="1" parent="1">
          <mxGeometry x="70" y="160" width="120" height="60" as="geometry" />
        </mxCell>
        <mxCell id="XH-Gdm1VruTbrLgLguAa-9" style="edgeStyle=orthogonalEdgeStyle;rounded=0;orthogonalLoop=1;jettySize=auto;html=1;entryX=0;entryY=0.5;entryDx=0;entryDy=0;" edge="1" parent="1" source="XH-Gdm1VruTbrLgLguAa-5" target="XH-Gdm1VruTbrLgLguAa-8">
          <mxGeometry relative="1" as="geometry" />
        </mxCell>
        <mxCell id="XH-Gdm1VruTbrLgLguAa-15" style="edgeStyle=orthogonalEdgeStyle;rounded=0;orthogonalLoop=1;jettySize=auto;html=1;entryX=0.5;entryY=0;entryDx=0;entryDy=0;" edge="1" parent="1" source="XH-Gdm1VruTbrLgLguAa-5" target="XH-Gdm1VruTbrLgLguAa-14">
          <mxGeometry relative="1" as="geometry" />
        </mxCell>
        <mxCell id="XH-Gdm1VruTbrLgLguAa-5" value="k = 1, 10" style="verticalLabelPosition=bottom;verticalAlign=top;html=1;shape=hexagon;perimeter=hexagonPerimeter2;arcSize=6;size=0.27;" vertex="1" parent="1">
          <mxGeometry x="80" y="390" width="100" height="60" as="geometry" />
        </mxCell>
        <mxCell id="XH-Gdm1VruTbrLgLguAa-13" style="edgeStyle=orthogonalEdgeStyle;rounded=0;orthogonalLoop=1;jettySize=auto;html=1;entryX=0.5;entryY=0;entryDx=0;entryDy=0;" edge="1" parent="1" source="XH-Gdm1VruTbrLgLguAa-8" target="XH-Gdm1VruTbrLgLguAa-12">
          <mxGeometry relative="1" as="geometry" />
        </mxCell>
        <mxCell id="XH-Gdm1VruTbrLgLguAa-8" value="Вывод S" style="shape=parallelogram;perimeter=parallelogramPerimeter;whiteSpace=wrap;html=1;fixedSize=1;" vertex="1" parent="1">
          <mxGeometry x="250" y="390" width="120" height="60" as="geometry" />
        </mxCell>
        <mxCell id="XH-Gdm1VruTbrLgLguAa-11" style="edgeStyle=orthogonalEdgeStyle;rounded=0;orthogonalLoop=1;jettySize=auto;html=1;entryX=0.5;entryY=0;entryDx=0;entryDy=0;" edge="1" parent="1" source="XH-Gdm1VruTbrLgLguAa-10" target="XH-Gdm1VruTbrLgLguAa-5">
          <mxGeometry relative="1" as="geometry">
            <Array as="points">
              <mxPoint x="130" y="350" />
              <mxPoint x="130" y="350" />
            </Array>
          </mxGeometry>
        </mxCell>
        <mxCell id="XH-Gdm1VruTbrLgLguAa-10" value="S = 0" style="rounded=0;whiteSpace=wrap;html=1;" vertex="1" parent="1">
          <mxGeometry x="70" y="280" width="120" height="60" as="geometry" />
        </mxCell>
        <mxCell id="XH-Gdm1VruTbrLgLguAa-12" value="Конец" style="ellipse;whiteSpace=wrap;html=1;" vertex="1" parent="1">
          <mxGeometry x="250" y="500" width="120" height="80" as="geometry" />
        </mxCell>
        <mxCell id="XH-Gdm1VruTbrLgLguAa-16" style="edgeStyle=orthogonalEdgeStyle;rounded=0;orthogonalLoop=1;jettySize=auto;html=1;entryX=0;entryY=0.5;entryDx=0;entryDy=0;" edge="1" parent="1" source="XH-Gdm1VruTbrLgLguAa-14" target="XH-Gdm1VruTbrLgLguAa-5">
          <mxGeometry relative="1" as="geometry">
            <Array as="points">
              <mxPoint x="130" y="630" />
              <mxPoint x="50" y="630" />
              <mxPoint x="50" y="420" />
            </Array>
          </mxGeometry>
        </mxCell>
        <mxCell id="XH-Gdm1VruTbrLgLguAa-14" value="S = S + sin^k (x) / k!" style="rounded=0;whiteSpace=wrap;html=1;" vertex="1" parent="1">
          <mxGeometry x="70" y="520" width="120" height="60" as="geometry" />
        </mxCell>
      </root>
    </mxGraphModel>
  </diagram>
</mxfile>
